<?xml version="1.0" standalone="no"?>
<!DOCTYPE svg PUBLIC "-//W3C//DTD SVG 20010904//EN"
 "http://www.w3.org/TR/2001/REC-SVG-20010904/DTD/svg10.dtd">
<svg version="1.0" xmlns="http://www.w3.org/2000/svg"
 width="128.000000pt" height="128.000000pt" viewBox="0 0 128.000000 128.000000"
 preserveAspectRatio="xMidYMid meet">
<metadata>
Created by potrace 1.11, written by Peter Selinger 2001-2013
</metadata>
<g transform="translate(0.000000,128.000000) scale(0.100000,-0.100000)"
fill="#000000" stroke="none">
<path d="M483 1142 c-26 -4 -73 -48 -74 -71 -2 -30 3 -56 17 -83 8 -15 17 -62
20 -105 3 -43 7 -89 9 -102 2 -13 7 -67 11 -120 4 -53 8 -99 11 -103 2 -5 64
-8 136 -8 73 0 137 -4 143 -8 5 -4 34 -61 63 -127 30 -66 58 -125 63 -131 6
-9 25 -7 71 8 34 10 66 23 70 27 5 5 3 27 -4 50 -11 38 -15 42 -38 36 -14 -4
-30 -7 -35 -8 -5 -1 -33 52 -63 118 -30 66 -57 122 -59 125 -3 3 -58 6 -122 7
-64 0 -122 1 -128 2 -6 1 -11 13 -10 29 1 27 2 27 74 28 40 1 75 4 79 7 9 9
10 59 2 77 -6 12 -23 15 -77 14 -39 -1 -75 2 -80 5 -6 3 -13 37 -17 74 -6 65
-6 69 24 103 40 44 42 91 6 127 -26 26 -54 35 -92 29z"/>
<path d="M365 703 c-138 -134 -109 -374 59 -477 118 -73 283 -58 376 35 l29
29 -21 51 -22 52 -29 -37 c-108 -135 -333 -88 -376 78 -16 63 -2 144 33 186 7
8 12 22 11 30 -1 8 -3 32 -3 53 -1 20 -6 37 -10 37 -5 0 -26 -17 -47 -37z"/>
</g>
</svg>
